Gluck - Orfeo ed Euridice - Glyndebourne 1982


Converted the DVD format of this opera available by torrent to an MKV media file.

Audio, subtitles and chapters from the DVD; DVD MPEG compressed (lightly) to AVC.


TMI:

General
Format                           : Matroska
Format version                   : Version 4 / Version 2
File size                        : 3.37 GiB
Duration                         : 2h 3mn
Overall bit rate                 : 3 889 Kbps
Encoded date                     : UTC 2013-02-05 10:38:44
Writing application              : mkvmerge v6.0.0 ('Coming Up For Air') built on Jan 20 2013 09:52:00
Writing library                  : libebml v1.3.0 + libmatroska v1.4.0

Video
ID                               : 1
Format                           : AVC
Format/Info                      : Advanced Video Codec
Format profile                   : High@L3.0
Format settings, CABAC           : Yes
Format settings, ReFrames        : 4 frames
Format settings, GOP             : M=1, N=4
Codec ID                         : V_MPEG4/ISO/AVC
Duration                         : 2h 3mn
Bit rate                         : 3 500 Kbps
Width                            : 640 pixels
Height                           : 480 pixels
Display aspect ratio             : 4:3
Frame rate mode                  : Variable
Frame rate                       : 29.910 fps
Color space                      : YUV
Chroma subsampling               : 4:2:0
Bit depth                        : 8 bits
Scan type                        : Progressive
Bits/(Pixel*Frame)               : 0.381
Stream size                      : 2.97 GiB (88%)
Writing library                  : x264 core 120
Language                         : English


Audio
ID                               : 2
Format                           : AC-3
Format/Info                      : Audio Coding 3
Mode extension                   : CM (complete main)
Codec ID                         : A_AC3
Duration                         : 2h 3mn
Bit rate mode                    : Constant
Bit rate                         : 384 Kbps
Channel(s)                       : 2 channels
Channel positions                : Front: L R
Sampling rate                    : 48.0 KHz
Bit depth                        : 16 bits
Compression mode                 : Lossy
Stream size                      : 340 MiB (10%)
Language                         : Italian

Text #1
ID                               : 3
Format                           : VobSub
Muxing mode                      : zlib
Codec ID                         : S_VOBSUB
Codec ID/Info                    : The same subtitle format used on DVDs
Language                         : English

Text #2
ID                               : 4
Format                           : VobSub
Muxing mode                      : zlib
Codec ID                         : S_VOBSUB
Codec ID/Info                    : The same subtitle format used on DVDs
Language                         : French

Text #3
ID                               : 5
Format                           : VobSub
Muxing mode                      : zlib
Codec ID                         : S_VOBSUB
Codec ID/Info                    : The same subtitle format used on DVDs
Language                         : German

Text #4
ID                               : 6
Format                           : VobSub
Muxing mode                      : zlib
Codec ID                         : S_VOBSUB
Codec ID/Info                    : The same subtitle format used on DVDs
Language                         : Spanish

Menu
00:00:00.000                     : Janet Baker's Introduction
00:03:13.026                     : it:1-Overture
00:06:27.353                     : it:1-Ah, se intorno a quest'urna funestra
00:15:36.068                     : it:1-Chiamo il mio ben cosi
00:22:33.352                     : it:1-Numi! barbari Numi
00:26:41.900                     : it:1-Gli sguardi trattieni
00:35:05.069                     : it:2-Chi mai dell'Erebo
00:39:11.449                     : it:2-Deh! placatevi con me
00:46:03.961                     : it:2-Ballet
00:50:08.171                     : it:2-(The Elysian Fields)
01:00:11.975                     : it:2-Quest' asilo dolce e beato
01:03:27.170                     : it:2-Che puro ciel, che chiaro sol
01:09:24.593                     : it:2-Vieni a' regina del riposo
01:17:48.196                     : it:3-Vieni, segui i miei passi
01:21:34.189                     : it:3-Sù! Sù e mi segui, O cara
01:26:36.090                     : it:3-Che fiero momento
01:33:08.215                     : it:3-Che farò senza Euridice?
01:40:37.598                     : it:3-(The Temple of Love)
01:52:05.118                     : it:3-Divo Amore
02:02:57.069                     : Credits
